<?xml version="1.0" encoding="iso-8859-1"?>
<!-- Uploaded to: SVG Repo, www.svgrepo.com, Generator: SVG Repo Mixer Tools -->
<!DOCTYPE svg PUBLIC "-//W3C//DTD SVG 1.1//EN" "http://www.w3.org/Graphics/SVG/1.1/DTD/svg11.dtd">
<svg fill="#000000" version="1.1" id="Capa_1" xmlns="http://www.w3.org/2000/svg" xmlns:xlink="http://www.w3.org/1999/xlink" 
	 width="800px" height="800px" viewBox="0 0 590.066 590.067"
	 xml:space="preserve">
<g>
	<g>
		<polygon points="364.492,414.101 400.925,481.039 473.791,481.039 400.925,414.101 		"/>
		<polygon points="268.752,414.101 258.884,481.039 331.75,481.039 320.37,414.101 		"/>
		<polygon points="116.842,481.039 189.708,481.039 226.142,414.101 189.708,414.101 		"/>
		<path d="M583.039,505.265L323.646,54.154c-7.717-13.368-17.776-20.751-28.304-20.751c-10.729,0-20.99,7.564-28.908,21.286
			L7.032,505.007c-7.908,13.692-9.208,27.138-3.586,36.873c5.508,9.533,16.935,14.783,32.207,14.783h518.766
			c15.31,0,26.756-5.23,32.245-14.717C592.237,532.279,590.918,518.92,583.039,505.265z M515.648,516.979H74.281
			c-15.591,0-21.979-11.053-14.197-24.562l220.957-383.579c7.781-13.509,20.507-13.505,28.278,0.011l220.547,383.556
			C537.637,505.921,531.24,516.979,515.648,516.979z"/>
	</g>
	<circle cx="277.766" cy="217.117" r="22.836"/>
	<path d="M370.425,462.59c-1.439,1.02-3.102,1.513-4.738,1.513c-2.583,0-5.124-1.21-6.721-3.479l-41.007-58.01l-6.967-35.906
		l-23.891,4.877l-26.682,29.418l-9.731,54.062c-0.716,3.981-4.179,6.771-8.086,6.771c-0.484,0-0.97-0.041-1.464-0.133
		c-4.466-0.806-7.445-5.084-6.638-9.55l10.57-58.71l39.041-43.047l-11.91-58.973l-8.867,21.643l-40.514,26.225
		c-1.382,0.889-2.928,1.315-4.459,1.315c-2.697,0-5.339-1.325-6.908-3.759c-2.493-3.784-1.399-8.876,2.409-11.352l36.179-23.412
		l19.03-46.448c0.86-2.473,2.338-5.177,8.384-6.403l13.268-2.681c5.502-1.111,8.564,0.374,10.928,2.632l53.892,44.93l8.432,45.811
		c0.822,4.466-2.131,8.752-6.597,9.575c-0.502,0.099-1.004,0.14-1.497,0.14c-3.891,0-7.354-2.772-8.078-6.737l-7.354-39.904
		l-29.408-24.186l22.391,117.197l38.959,55.115C375.015,454.833,374.135,459.965,370.425,462.59z"/>
</g>
</svg>