<?xml version="1.0" encoding="iso-8859-1"?>
<!-- Uploaded to: SVG Repo, www.svgrepo.com, Generator: SVG Repo Mixer Tools -->
<svg height="800px" width="800px" version="1.1" id="Layer_1" xmlns="http://www.w3.org/2000/svg" xmlns:xlink="http://www.w3.org/1999/xlink" 
	 viewBox="0 0 512.001 512.001" xml:space="preserve">
<path style="fill:#FFB819;" d="M272.022,6.61c-8.812-8.812-23.231-8.812-32.043,0L6.609,239.978c-8.812,8.812-8.812,23.231,0,32.043
	l233.369,233.369c8.812,8.812,23.231,8.812,32.043,0l233.369-233.369c8.812-8.812,8.812-23.231,0-32.043L272.022,6.61z"/>
<g>
	<path style="fill:#333E48;" d="M256,489.636c-2.118,0-4.237-0.808-5.852-2.425L24.789,261.853
		c-1.553-1.552-2.425-3.657-2.425-5.852c0-2.195,0.872-4.301,2.425-5.852L250.147,24.791c3.232-3.232,8.474-3.232,11.705,0
		L487.21,250.148c1.553,1.552,2.425,3.657,2.425,5.852c0,2.195-0.872,4.301-2.425,5.852L261.852,487.211
		C260.237,488.827,258.119,489.636,256,489.636z M42.348,256L256,469.652L469.652,256L256,42.348L42.348,256z"/>
	<path style="fill:#333E48;" d="M185.368,328.287h-38.627c-4.571,0-8.277,3.706-8.277,8.277c0,4.571,3.706,8.277,8.277,8.277h38.627
		c4.571,0,8.277-3.706,8.277-8.277C193.645,331.993,189.94,328.287,185.368,328.287z"/>
	<path style="fill:#333E48;" d="M367.651,328.287H324.61c-4.571,0-8.277,3.706-8.277,8.277c0,4.571,3.706,8.277,8.277,8.277h43.041
		c4.571,0,8.277-3.706,8.277-8.277C375.928,331.993,372.223,328.287,367.651,328.287z"/>
	<path style="fill:#333E48;" d="M324.514,212.686l-57.568-23.198l-0.984-7.413c12.36-7.258,20.664-20.682,20.664-36.05
		c0-23.079-18.707-41.787-41.786-41.787c-23.078,0-41.787,18.708-41.787,41.787c0,20.07,14.154,36.829,33.02,40.857l2.064,15.535
		l-31.324,34.201l-33.689,9.658c-8.034,2.303-12.679,10.683-10.376,18.715c1.904,6.64,7.958,10.966,14.538,10.966
		c1.381,0,2.784-0.19,4.177-0.59l37.793-10.833c2.684-0.769,5.102-2.267,6.988-4.326l17.088-18.658l4.78,35.992l-35.168,40.279
		c-2.185,2.503-3.485,5.655-3.702,8.969l-3.335,51.272c-0.542,8.339,5.779,15.539,14.117,16.082
		c0.334,0.021,0.667,0.031,0.997,0.031c7.91,0,14.564-6.145,15.084-14.149l3.003-46.161l19.04-21.805l7.374,21.738
		c0.254,0.748,0.567,1.477,0.935,2.176l25.01,47.607c2.707,5.153,7.966,8.097,13.409,8.097c2.372,0,4.779-0.558,7.023-1.738
		c7.399-3.887,10.245-13.035,6.358-20.433l-24.457-46.556l-14.269-42.062c-0.19-0.558-0.415-1.094-0.662-1.616l-7.347-55.31
		l30.502,12.291l-4.547,28.671c-1.309,8.254,4.321,16.006,12.575,17.315c0.803,0.128,1.6,0.189,2.388,0.189
		c7.311,0,13.744-5.313,14.926-12.763l6.434-40.572C334.908,222.126,331.055,215.322,324.514,212.686z"/>
</g>
</svg>