<?xml version="1.0" standalone="no"?>
<!DOCTYPE svg PUBLIC "-//W3C//DTD SVG 20010904//EN"
 "http://www.w3.org/TR/2001/REC-SVG-20010904/DTD/svg10.dtd">
<svg version="1.0" xmlns="http://www.w3.org/2000/svg"
 width="700.000000pt" height="700.000000pt" viewBox="0 0 700.000000 700.000000"
 preserveAspectRatio="xMidYMid meet">
<metadata>
Created by potrace 1.14, written by Peter Selinger 2001-2017
</metadata>
<g transform="translate(0.000000,700.000000) scale(0.100000,-0.100000)"
fill="#000000" stroke="none">
<path d="M3425 6991 c-16 -4 -48 -17 -70 -28 -26 -14 -627 -608 -1669 -1650
-1795 -1794 -1680 -1670 -1682 -1802 -1 -83 17 -143 60 -195 18 -23 757 -765
1642 -1649 1191 -1191 1621 -1615 1655 -1633 94 -47 237 -38 314 21 17 12 759
751 1649 1641 1409 1409 1622 1626 1645 1674 45 97 34 227 -25 307 -14 18
-751 759 -1640 1648 -1232 1232 -1627 1621 -1664 1640 -53 27 -162 40 -215 26z"/>
</g>
</svg>
